<mxfile host="app.diagrams.net" modified="2023-10-18T01:55:40.522Z" agent="Mozilla/5.0 (X11; Ubuntu; Linux x86_64; rv:109.0) Gecko/20100101 Firefox/110.0" etag="AKmIe7o_nlYxSbOdUqMQ" version="22.0.4" type="github">
  <diagram name="Page-1" id="ATtmkZHTIbTdkRKiF7qR">
    <mxGraphModel dx="1983" dy="1094" grid="1" gridSize="10" guides="1" tooltips="1" connect="1" arrows="1" fold="1" page="1" pageScale="1" pageWidth="850" pageHeight="1100" math="0" shadow="0">
      <root>
        <mxCell id="0" />
        <mxCell id="1" parent="0" />
        <mxCell id="qwQ6lFZk11DUhRD3ejrK-1" value="" style="shape=image;verticalLabelPosition=bottom;labelBackgroundColor=default;verticalAlign=top;aspect=fixed;imageAspect=0;image=data:image/webp,UklGRthrAABXRUJQVlA4WAoAAAAIAAAA/wEAOwEAVlA4IPhqAACQVQGdASoAAjwBPpE8mEiloyUiLPSr2LASCWduz07Z7AQ15j+Z9uE+q+pMro5lJAW6PyvPOf5H/S/kp5w+P70L++ftZ/dfnT+98lfZb9WepP87+9/6D+8/5X/p/4P56/yH/F/yn5KekfyI/wvuO+QX8m/nn+X/uf7w/4f5R/vP+d3CWx/6f/u/632CPXr6b/t/7//lv/R/kfkQ+q/6Hoz9jv+D/lPyt+wL+c/1n/Xf4T95f9N///sH/w+FP+H/0/7W/AF/Q/7l/4/8d+Xvyo/93+2/MD3nfU//q/13wKfz7+6f9r/L/lZ4Xv3s9rH9zkjz0jKIRYVlblx6CJuPa020SY49BD+S99R202H1+x+JpzN0uRdLld1D4r52xMiVdv6OfkHqjwI5thvUb4UJjeOCsFWzt7QuTcQZRnwx4evz8RdrdsZshKVN32cRauoazzDeeXweO/Cunku2ssatmMIr0zhTd8oUtblAH2qYtqSiIE8s2i75ZxAQy+8s6DkO0sc9rNafbij17Sf46QmXtJGRGojKBTe8jPPwP3c5vzOXIwN0nmu4c1WRVj5+CgU8W1Mz2SsbogtcqU57y4pWVhMl7Dd46LPlAZg2JwSmfL93KoZQeVxUaRvTAFq/BcQhBWww19ZwZq4EP8NDHOKSj7Q7VHl89v5UcB7/eNajZWgIeJDAFOPsxEA6XK1nco9nDi72sEJGBaH6SxdgeygXPW1/WJymJJIQKC0GpcZ+FrWnJT8YbIndhkFahbSpNJDKJtGUNNz2Or08jfXideeP37eOeiye9DbgrvePzdi77fsZg6SRENlFrImPypnIT9UJs8ya2N8b1gJI+dNjD5ug1HvFyZmxvonl1Goa6ePlYMBtFD136PqRdrIp+7cgzUn/r4Ob75n+7jjAUz5qdB6RW5sXug+RDptkv0Hb6ITniKZp+RmgfchZ8BxjBMfdw0yFtfmG84rGURxWoVa722xdSnGn39ktn5+tDCM1ipjuqb7ykYwivG62LDjLg+8y+X1o+bm24acA4vnA1gBPpJ/k19EoWLqf4eV4kgkALWUXtfY0S3/zAbERX62d72E1O7ypI/ZazufoQfJ/3lxJf15rhKKz/nqBLL9npMBtsJAk1/99tpfVJbTbAQI0BoXrC3DDZsNuiNQvLBcsRhGmpBLymcWtyj5O14vrpFGrnAeyJdWnsQUYwxb+lUqGBqtNVylzTpZnOTbVzdOBi8+gF3UP3sB7AxmcvXoCC4vgzDIAitOXmivB4cgE9tgWOsTzOrhEUSTWoDzRE8zSzvEBTyeqXDFUxcvj6FYkja8MSV87m+/Er7qKe2bd3DiKMGeTqu4F3s6k/RAZnr9AvaamO3Lb4XeLf2SDFlqge0qgYQ70Fm6qhKizJTOBtQ/zbbxaID1xd7RRD55onusActICJw/6PRZgOVYw1/qeyCe5eyAvwiLAqgZIVcwUZG7zm079RCvZzUlfDztvQ0wFidNjgDwK5/z1XhouiVJv4vS4/5uJU83GCispBx2JMx9wKdGFvZxw+FGljxlbt7BU0TsosL3oflS38Er/FFw6eey7jw51p8Kk5UMXmZ51uAjAK3CyISiX5/bNxWBgGi7Q14vLrykfTP1QRR8X7nFYkgypFfJ2pupjGgg8l0V2PQEqYf5qr23S4U7SjK64zJEJ6bmpUIz4S4oNHF/EiAXmT/SlcyHvK6MRNkpEGLLwD4C2b+p1v8qInFp20EyI96ZTKuoSSouLcsYjr9hnB1nZRqpmQ4bxafQ8Xlb6+VjOOQNEmSozhD8vQkTAIIYAkH2zl/mMX7pm7XjmeJ816wjtY4uzbNNcRoq7KjhmGkfvQWVnS5GBQL+uWKUh+UiFzrUWPCPSWvPsOygSFGoE6xNI/LQ189Ss7kBLfinGkohSZl8/jkR/My9NTmzWQAQFAKQ8d3T1zR/QCeigN7a6d2vtXIWKWPXCNstajimnyTtv3hI9oOo9gHPpQ1+NAssYKDXC9XrDD+/InjS/Bv+m08Mzg5lOPji28tl2JE9BRovpTpK7Qs146N9AXQmSoB/tbbdd2VCIPtFF01B72J6O9zym4kqXn1YITT9tEuYuPq5gXeu2ctOh7OwpLt6dlL2swAFDdku20q15MSoFBfWLCt3m4Pb+iU8ubN1G99NzWVYcIDgrGxi1nCXr21MpDd8G7WqEv6j6ZXlqoGpkmgYSLs4RML0uG+L+5Rga7caXZW1AXRrQhmSLFLiqARQYpt9cOMjW1MpU/wfW+EdTzne5CuXn60ETfQsP7pW9Dt6Bf14fSPsu9fk4vVFvqK+yXoqrqr11v/vnVicdc3J5lVV+sPShPSu+txGIKqqeHcMg/Qp4M9jbwDA+4wFbnXX+L+foIrtucshO97R3htGBjDgxp2ru1Ov6hp4SqtnJZ6zJWNvdGZ3PKIZvLbb59PTPX5IHiZmtDqsYcw+z0cn4tKd1qC8sKWhJVYWaE/buUV/BN87TZwgBsqTC3fNmWYF8L31GhpmYec+25Qx0wTlGpwOOQGhudFDL8e2EBogABhb2qnQLxPA3qwIBsIdESHQwxkRAzGwkryAyOiFSxjWNbjwyworkPitXY8fxl+mt0/GAO5/XdFXxVlRAhJRg3jD4hLSZ+7UenIh70OQtpx7vyBZDm8l6QMvK1VOF9HkVq9s2cDJ6BvJIEkTwRv5sJ4LF9iFPn519lHtb00Ttjtc+PG8wBe4IXkY0G8GfBczDYM/1K8OTej2na+p+eM2T3Wkl3nCeoPmYDtP50eYn0z41R6UjY2fj2ZQz3wkWGuuMzPQjpXnGNOGQReK0DGuJwVp3Hhc1X9CGUlVetiAMnhXhnlQo7/Ry0izSCFM0uOe958nttsFEBZdsLrRfIeOH5l/dB84alrts+pm98xgfOtAa6l0N9hkHcfHDbDa1WREhRZvERPbANHk9cgMXmTqY768xgaqxe/sslrt/2gaZSp0xf2R3el6MkIcA31fk3cmGlJK9p8MV1xWqHSfGWx80A2ljn8gFAmR0rObSb/xvr2+D+EhqHg57T7uvOv5BkbM8je0AvhBnN/IQUhFLivCJIIxVc+8ss/mD1hS0sDlrPQZ1P8APTjhxgFVeFdOAZ6Kw9psV1U3zWArpViMD/WwySXvFCt/rLvep185Najs//xPV80FZ/d262VH8Qmz1Csba0mHWnGNA1VjrKdk306moAZ/iUtJm82uQCih5nSLz/yYQEuc1QKxsDVAXVVP1PmPEPyWG1xCE2ftTykuYxjNkv8aYknZLrPsGFdAcEeQHlTXBBqNOtmancTaK22GEGHk8YzpjuKoxSdL98Xw+l9drhOTFffm6NUy4dYZvaxeRVXT99tb10hVPu2zlCYPzsKU1cCiC1udKosDdDRuFc5dMutlhEb7mN68Q8NGJdrZEshLS5ci+P6hfdIlEckzdGntbdkghRaL/5+bfBIev59ZAGLO3zot6OgfE0msfCjxx9StGW4NEsP401KIiiQfqODLs0a9uW80dzGlDM56O+BRPF7ZxRgRvZu1YMiGWDAGTyvTZ61SWO65uWU1FUFdyVKD9EVATHzWnMZ91URZt0lmlDAJhgDStLMJ3ViO2TENwK9uUiFUyc4FS3mag6amh1mdwy/R1tql2ZPIG9uFO2jn8qCqa56RbgAD++/b1rVrJo9bPT/F0INrEET9Puzh5YmJUAVUPivcimIseVsW1dZT67No2LxdHpT2SzUoUzlQN4OJfoSbj9wwa76rat/eazpxYLFhkTE21ff5UDdvDnrCtQqdI2tVxogwRgp8WVe0hNdnBLdn/ylZ3wIARMhEQPe50WDBS2OK8mmQV3S4IcxV7Pa9zaDuPciVMKs2MUUzlTdb7BsdAXdtAuq3nYUptuyTyWkKtkqbVpyDgHkTuuBbZ4IWKkoIEq2LODRTo0tehsKUetLHntGTZDiah1UMrhLWb2MGVetpkcOtRpYkuoEhWNlyCcLg0wfcY0ZimmFszscq4Ibo3iRkpTqfvjnBMBp5Ic9hfDBwd68kPyhlSSm8DbuK5YUJ0KrVh6DeiymCDCfoBuc6grBLN/lvOlhzHkH4+LaHwJgmvkiIdcbeFsDhRV7P3lkJ3W5ukmDrMWPEIFvcnQiUp2/duDbZV/FpwNTyyq+MABAq7kBkeD9lwBuGw+TxFNv44UaWiOfFCvbsmNB8zl1TbBeviLMxX1WQ4gKeUfjwIFD58nS1uXwYEm8wzlJ9uVaAOBizQLd31jQVx+T5E8WzNOSvFZrqcnFXJv7sdFbERY2oHvhfGmSdEuJdp5qRgT/+DbcKovFtuht1UOTdZpb4X3xrjHosc1Qan4tKbhbNGBq5l3sKGPW6nr5BsjldygrrE7etB1/DLDd8YB+kA353AFmgmAFwx3tJL25vi+qJfjjA9AnSymC1XYg6SsPxe2/xo//8ST5gStej66LpIUgYE6wr2lBktETbx3iHwQivHF166rlkuqkslSU3gTdxPy0fqi/5z+QCQdg2pl9DP9Ppwi2P1Of2mcgFcmpA/p4wt6u1trxM61VAEO/gPG0gxuwD7LemCim8mJ8kqqbwKrCgoh0nCuTc9M+BMyZbo6uy4puSw+BVMr7dJnN5lpHnI4y43/beH+wftEwwwke6H6bnDSWTrodKS7K+0pVqGl0sco4lI+TOHKrLhhid4Zgyt4rxpmSNO+IT4Q5C3aFbYqxDhZsYBNDqMT326l9fULa/yxmeeMsx53zCXbG6c2f7iLo83x/nVvPXnii4muiT3AjHybqF2n8sb86Ni1DGAFnqHImgME6cDKDj+9s+Lvjo9TKbkbfjG1h3kcclG0HtXR0KKaBEVtQ2GxDYYDKCzyahDFtz+/bB5IrHMZJB16bdE5cEhLIGd2NvnUBC0ukOdJoIcRTER0yzQZxi41J3Xw0XwcA5UgSJ7mEbgjpkJCNMJR8n6oymmnMBHUl9MN+NGWU5k3AH21pMB1Ms/pjDShwOr90kJpyc62f73T4CTwqBX6ANSsFJF7UznWP3NV5uxf76tqItJbtqUkGW0ugnPKupFMMWoee/bdmkb9ssAdMCLEIHVdSZrYE6pcHLvEFjx5ArPSHzvpGsMHfgjnlF4oaHiUdNNJ2KXAjA4t4nUyw4Ea2Onij3tFRXfofFQWeczAmCKDfmvLkuYT8DGtfNVbS58BxyxBX/Bf3rqHXLdsedw/W6FVieGjiHk2gj34z3HlcsOuCbViVSCorUEIvv5RmsOfrQDLUL7Vxf0+kmKdDElvtngzv64p7VZThLJY/qpO1EFeLEzTF1aHKUYhk49Ufyn/sNr8iBIPp3fGclCZxQdsUSKX5UB7DAbxz/dXhexQp4PoTs+AKnVDEuTdq5s1Yhthsq6iG1Bv1UMh9HaXu1960Eblw5h3ScyD+hF8mmMEyMO9HBgvaQ+ZbSI3Ntlxu86/FG2C31XuZlXzpzVFBZywMV3V7CDX2MLuRs6zt/rFoh2yQ8feHm7wIgPG0sSheOksZVGDV1BSJN/J3pJgL1AijvhjpHq6hLShnopdjHuJ3HNgG8cXoTN/DyM0WvDRd7hCp/fQlG1LJLNqH0TpPADExKQeen18H6lKCwSCkPwJ5RfJ0K+BZdyr7cc71tw3DmL13xm9EgGcnjQuQBhiO75QvT0gH9BMY+QtvspfoqfCMV634Vd1Qajbjaa3LEtLa9LO+l+WF7GSVbyXZKUKffp+bcZOQkTKn5XkbP5iELg6dDE2Iry2tkO1C+0aJdEEjw9a3Z1z3xwo+n3/szuwXN1ek1esTSlJGq3sZppSK1YhaZek3aW8IWPGrMcQFB3ddZnQqxeH5kaCjtFLm2ISocSLvwoZKChOGVONBqGoLWPrJRqRvCkb1/YiGRj/vb39/jyDs5m6WXV0u6oDMDqwaGjn3/jTmALcJ5LaNf7KfPVFR064ljZFocXDX04qkCuNwuuTg0C5cgJd7CUyIDiqXxgWV4dAff0UDNA8APzddlK6KkyKNO9lgn0lMPAqKHVXyVWaMRc0NMT81d5we7NAgrgv2Ok6VaMjzfQrWg/OdFyGN+W1P7HAyYI5H5Af7TSheF2gRg/YEj1pSZsrD9f5lLSTNntDTaM5PYf9Vx+qExF22GH1lZypkW2gPUHK0n6HENO7277917SXDh0NoGc9dkXyNCSS6zwCrTk2aVkYyuOnDkNpAGomUKi6gS6Nh122i7/28DfGYiBdgchizoFJanjCstuSc5IROb3eQAMEBcykL5vUiUU6Xl+Mcyurcdz8WffwPobTdXwqNZVkumzFA5PieKmBnGv+iou+8YPvbokvqQW+dgn0XrY5TtqZ+TaXa54PEQMrsceL8qMoT6qzomi2jPG8V4uJVisTjbz0p50V+ubbBx7Ug2U2oQy1jGC4TxOn7mB7W1A1VqOn034YYgHNKyG4piyCsZU/9COGKOr7TOknoJotRTEdmJT7oz8+o23NZ3BAPiP9igEh8IcYtQb+rP4tvrIbfN/RRkHShiQoVmEXj3NCfFWKVinS/9eImZLyjMN84cN3PpdB/TKtdj+GMvZLUGFTYVq/3VHlNdJW2xF6gvQr8DMJJMuNDwdq8G4y68HmHYfCkT1D+ApUvk/V1dVG+YOvBI6FMwNlmeMCnVfd61EF4Jeu93Vyko0RVyAEylVm2298SUaSkGF/kR9bJ3Mrx/4cqhrG2U7pezhn/ex8/OHhlcKUVY6bYuYYlxnePZixQduxoU2dJf0OnZkGWtswc5D+75ltUvrcgl8bI72OOx6k4J5OFxHEE44C7gRWZHVo/Jb5FilXsSlI1umiKySXgO/egbV7ZhLIO8m1nT3WhRg5EoCsl4w5d/RapAbAGYYn8Gv3HUUbxhuGiaQwwoMCPJlXBkZpXruKdmCWzkKT+F8sreF7wCpBJyD7f922HIROTAjMejHBHMqUBksvK5Yc4kzxJP7Uon2q4pIosb8cM2oB7UVjApIlhZ27U/2HcsOJ/+DGa4hD7Du9mR4Xg1RZbMETozfctARhau6b63Esg7UBxxKbCZud2GFNm7KZd7e6BNGg/023DV3D6z18JpI+zw5z4SntELSdvXD7Y5+LasPsjcH6DvSt3LcHNlP9nXS6J1G2vbBOX4AxeQdGyi1Rg/K5feJpntlZOolgnsKO0qtvFukVPMfnJCAzZaJn5U0SOieabiq4bGgCPohZiuquF7iifznU7WM142CbZ9FbUQrPE12/liD2n67YgptqU0Ib2KD/weSZperV9ovDt+C8tvvzRw3qgx8yqET7ee9UUZ+fgI6GlBiFT5HpOcHYExeuMsvibUZAzfsp9FlL/z+cO+pJGIiYyI6e9SRqlh/hoo7LUF6WYCt8bKJZcE0AWE0KgPkfXUDIWYNj4brdlRB7Dl/kh4WiiafYNdYNLKTpS8xnOAxv6LlhKnJeqItB+I9unJH+lCOD0KX8D4BLxn58jJMhbaaKZvpYm/qpiJrAuoS1B8RKsIpmI8eLprxuaHom2TfEFnLaCHDzRxXPf62e67P5FVvjdmXgdm5ihkL/5XS9/Wxloeuha4SQNl/7KWrIoxlKzr0NviduQfipUndTeil7HH970dSgu46vxHBknvxKH44XTEUMCtMUDqeN9Mq6gO6EWg3N5/jFP/+BqLzNWiK5A3VeXHxbSrC8OWdhUk5nCcuPLcdHcb0FbDsPSxDCxasUZ6pw6DtPfMxFPa2B9Fi2++Wg8m8vo9zi/JEZ1daAJxCmfljl/B/axGV9NWGpt1JGDGAT9ezWHDEODwhO86iKxVwokRTN7wZx8QcYgWgPNmyZ9As0JqzNHITj18+FrRHpQHq20SVolIyvfAL7Qh/tsOuFxwlAtqPEq2l8XTtSSfcMS6iKmLayGTd3l1jeZXERX/XGOAZjgRWn/BiVEZlrgbWJFyXo3+PlK5gfR4m26tdGglJqPobWpmRG3cOf640otFa/mAP59Zt3MUfeBUuWX1MaVIGwbu69tli533d03s7bHlT2+P5JB4z1wTkE5v2LO91KGZ8c1/otDe3506lS/mb8I0yYyOh0ml99s2t0sGD67OHBqzYWwmBt+lCw/jXehSnAhFHji5sZckwYANCBsKrOXvqafFEyuJD4UZmtDRJR9i1pQqlgGG88YZLp8g1gI12vWyxQX3kSlP8XlNN/1M2fPcEqFuk2xBI5KsGEwX2rXN/Oy42bz1oZpuyKQTRp50XycG4Mc2+wm1mHo0mfsB08kxDn0eSFi+BbFqOtV4Q1HEGWfULdsDJqSTtZJ3Woz5+i7eZLFIs/pLleNLWjdhBHRsa2wRaPX/T+d0PggxA9MBEW3JsRpMSEAZZzrSQCKQa1grZORbfDw0ew8KE23lUSlQObaVIrgL14FwinuzSd49jF+2YebdRRK9KHQiG39Xi2DxlKiuGj8jVNzJOnjY/CussAjZP6hn6FiPTDcqDdYgoJ6tWolxW1xJ9CoyF4oEIMDwmQw1gEdtgb3U26fgNrAtpegoWOLJIxEwkYSh7e3Q/2t2DGwBAYRKTNymoDTXQsRM+YCjmQ6BiSpRNcXLjL1BcVUgIkx3LPY72UFa3aojRR3hBLqMxp3qkGfG8b0Gzp/WIsr8y18rDgYfFa3KR8QQACNxIbhdLnwcNkr30E4+dCJFG7vATbIpVSqv465/goT1hSpo07yPWPcOucfyTwzh+uxDuqcRmGD0gPmAX0s7nOKEse/HOTgoftDe92ej21E6vfAsUWeC3yg3u7f422EjDaEqX9AfEAXUk02Q/10ege1AxaXhiJwkNJq4gQLMXeO3Vh/H+X8wro1SqwC26WpGP+HG0C40d6tvo2Dj4UwdKVeAHq43pI4Nt2khWpDwfrkkTQrTmt1S7RoovKTKmh/ja+q/js8rgbxNckz2MK7eC1D/ACZVF3ziTHQWDL1IyMlCidscBILknzuOFKcriOnqxVhTXfmltvEuur2pCzk/1Ec1Dll0PZnrbTBfmxFibI3hsI8CvbMl3ionPQrkEQcBkSRO8DDvyUMrd/WMVJ/DLY81nM7Tzrol/vGppMF+SRPF3qh/g4Ql4hyWwRZ54Mtj2o8Cq06sq0cAe837wK+oNjX9PqaSyvledywPg9lV+OEwkJ0npegMOFa3tlMGnUBWs4+5WIIRc04aBrLf3QM6hvhfI5iwdwicsLCbsEQNoapwDx3RYCNkR4tmx3ogD215nyOvEm6AWPQB9oBUkIwmDPeT0Ae4b2vvOVfHj0RwiprU6Aw1LT4IbOag9voaw6IfaaVaH0AfwgOUhPDh1QOUDejDeGuWiRrZVz3yFZ/t7zwQIaactB5miEdrpL12IJYQokJlZQMcL5s/Ecb9QHEo2+jFD3DcC6YUrLO8f2J7av0As/eRjaYlmyGj+EtSdJpniLSeEW6D2frUa98T/5O1kdq4UcYwQhRgcq8CL9QrZK5tj/qnEJFwyHPc3pQSJxOeYuC2wzt08ILh8BkG/i8MO8c/uGUMjO14fEVnDzqa/J2iELdgPbmcbGzvQtv750WXRHWwJ+NsqUE3ws2g+adIw3HggTuZ0gdPh8w2Y8V3TuAYTQgGv4XGCdxeGpMey35b5nhzz6DLI33RE8R7U2YTZNTcJQGbzhmVibwmKPgsnqal+z4/fCDT3HGzYU0iHF2pUilLQM0Viyc+TS3EA6TtfAhP0K5Ro97659qwJ8J5xYd1Q2IMe91GFfuhygxrgd64y33wXZGMnXYMj3GLtUDCA2rFyinfI2DBbbhafZjp/tzILDReBs72HAK2364yEOIu1K4Mv4ytY4d/oPuPtiTv/vpTZVPpt3QfKAmHG+9KSsQ8IAoY0Pl5Sl59vFZJ0PAOvhPncNLRst04/jqCGfFI36T6MT/agClEhkd0Cs7iUzgIwtkgRiyqEJzy2ksehixVu0upvI0AQFuryzw+fGqFL8v5y1sHGtHpeYQnUKOKcFn0cFdgs2h0r3BmVJAj4UW406PGkGHjISZ7MG5eeuv5nvYEYOidfx85t+CWrX5i+q+syjThpFTSiHqHWVyrLF3k57y77RwIhj6RHZ5Pj0iO1V3IgqvRt5Sm34g0kGEqbhe7+dRne5YJgVvQR7AgqKctiaNz9Yk3danvNW4Cuk96WdX/Khah79Ews+eKfGpZdRwFuJczK3KNoZ4OtmZbr/3bOgHRA7g4Pukl8Sxol8BPelqSfMBER+AflltX60DEIbepAw6EVKCtjcCuFwo7hzx83qR0HKak1oCFAydvNDMrUOGNwOHMdD/IIO/RpA71hRZiq2rso/ffo9rOZ62xKv/LoAALfnf7LgtTQQ54HlraFO6bffJ0BKDjiDQf0zYRkfgWZXn8KYnuND+Q4XFDJgkNe/e7hzJ8VOS+LV4KcCROjEsoJ30Ititd+tDTij0/0f2PSG5bs2BWckli6bdmZqFH3nvO3eADvidcD0U7mx87jG4WFFrhJcBBP2TBnTye4gzPglVSsCYn+9/x7FGcnqt9c1o6wxoFeL36jgctngn/8xKzBb6Lm1CF5Oarcu9kJHahxWpsoz9VD4gUYHDyQM0mtDdrcEyC2wn7r6vJgQeqgYUOb+V9n7MNTMHbK8REIS9L/NEDx0r5ZJ77hmhMKYt1o2H/edP+7i/Vy74sA37TQfMrJC5sEDgRRaD4fjQQqcPi3rGtqg4kb70yKI5cXv2WPD9zwC1KpjLDe95bMUWK4YpePw3UrZ41h9vTXaXsysFAm4p/oV40lWHSJgdTEF8HK6UqtclMmhKoc4ITnNqFcfu4nHPTDxN0Ro4SpnGP+DBdIZR5uUy9IwhmlXpnjrrZjqf5WA/VOHjqOE4VFuNb0bsS5kO1+jeAu4+f6tFHX7qD16w/Uyh9SR0hntMXWotGx5zsHQP3NlE2PD6sRo3NZnk+c6pbvKtwtVw0KFlywtOcW043lg/Bq/yLOLM18PiphF4Phu4Ae9aSnQZBiLhDP5sw7vWPyd2S7aLcmBkmRl+CNhGpC9ZSYCqmlIMXaWloHjvlHCF4icjZRlGITFtHZTJsCps9yBeqUL6aSgd2DvSUm7jYsWJoENnWthF48XicTTEo6b8XDF+uOWnYS0otTCVP29beD14HXrqXtm/Pul8YNUP2ij1LUJ9x/WZAUho3b0xow8wrA4RZGO25Ia3pRb42S+Dvlduoy+rUgCIkDbNA2lwPN8jlaSWrkBvMWOe3HqZKGRDv2YQQ2HPCTCXC7+pzx6vr7axSdSSVkVE2eJN1j3qQ0N7Iqy5nzJltVQDYbSnzeZ4hjDzRBD9KB/QOYkgn88kHcMW/D9NbUEq5u+SBvj81ovcZLL1HFyWmG8ejzDhnmkx5A4CXB4hSPGTNkAhF/kd43XLM7A3yWdm/N63Rrz7h7kJI5R9CDw6ufqd/MdGKi/aNC/8iD6WfAnONPJ2qZSQuy+aPKsqK52B5QoJvGRFcYvTQIrXaeTWSD14G4xmP0R7lBo0pCc6mgWglkPbtw5oOfvPAt1CkMrr0wXLy+kxKSCOOAPAb9cBfHmGiky8pVGZTxJAVMLi+Z3SzvlhyPEtdLmb9pGWAMmzH5mU8/14rN4kgvFxCb1I+1ATfLlcZ9PXYs+G4/Pa+oWmTdmS2Ah9boRBorO3bOsDNa3RlwrojTA8euUlrvaQQAXq0n+bxMwov0kJ+HQkEFRMBx+2udBV92NXzSq75ICB8DfU3fr6avpwcLNl2VBzwuzUcVPsfeqKdssp/e9hJQPZDard9qpZsBhF+ZgoFoYOXoqpfNNMWz7AuFCetrhNw0GcPZ7wFv6g8LgaAfG+t0EdTHjE3DcpSGY3x5KrcxrvoBs67wF/GUzZf4JQ/DfBxxHsRkaMlOMV06sPq9I1O0s2x4RPSPDYBevXwuKdou++7fm7JPNIEsK31yCwZlvq8+BwwH1Bv4lTNJYadsAQNYvObmT3+99ScIy8+JyYNT2Ik93sh0aFVpvJlr7X8jbisgxegjzw5uUE2qgR9ziLed1ANvYO6RZtzA7fSMEhoe9I30WzoxoSeDWCKAEJhCUF5HfeRY8EXaiTAtjgpHGa/hYZu9YWUgikAA/ZKsOVMQdXTe1NQTxVCFEsQDM2SPbIt2774s0KODcguuv8Q1aDm2/tMbK4u0bQ8mgdD3AYBr009kBFIZtM9AYIYsO92wJ9M42wND9uxRKTsPO+zp/KX7VKkTQzMXjKQSm5R7vxkZ2RX7u76H9YQTn4Gd7d5mRjs0uzNEoZTpuISLaxC3pqEoMie45euHMR/lKvUSRgCsb9VKYICNxdS1zURQ7zSwtp/2WdRuP/1Yqw/JsnicwDNqn4qwvenbJSzGpJ1As1QQvxhN7gVtOA5i3azRq9JRD3/1BTICKlfP4MEfJCnu6NdaYggfdYY6nWg+rFT3sWNKKcv9aXIf128ytediQXym1iqiqU6DHhsqjkjgrHzto8pqfAqP+JvoSj4rJdOeKaOOdMfD679c0KD1gHT1VBBd3kKNKAEBLaRDMmhXP/+61/qIP/+1UZZ0t5toT/1EUzr++E5GoqtId6cnYg3J2Edg9SnrUue57qwutY9HzLLrVD0AheN9cfaeYNdX03jTxQmn8jKo1RBuIZMajKUU6Q+MmH3x+Vp2WV/Jb/OVkyAnqhKVAWvmWsZJNBrKo8SUG02EQHv5OCJHjNpDvJpYVG6atFd0Y2yTyUs9IQarz1nU0fE/ZOH3DNsJ69b1CwB0eHQGZ3ADdbrXvIN5/8O2KEsm1vKtPmrBBd3J2RpozcK5P6F+N/a15R+eXc0q7Se60fGHECQuwOVKamJiUVoaMa75fmuq54BdadHl26xfFUcHknxxMCbuagMp3GsLa284j+nuSczKtffeeUuUOZMEgtYdR96jygnCa/OuR3DrMbMW0Ttou+kFHp2j0z7EvqRDyhMVo1qrFyO1+s9DPeOLDhvZ/cNhLFoJAOa7i4mMKGwn9YCMVCBYFNZQtC7pPqFkTnBXjdRwl28mXrU84o2I2ZPlz5LT0UBlUfzb4VKBmAUXRwyZFTwMo2wjpb1MPcChVX4B3rY/xCvClvY2zg9Y2pobmZ823NSZ0rQ7E0D0jH0zAlf/uHgUOmDneScgfIEjpupVyV7D4jVf6J48kd1NFRjYgOdMijdvWKB2V7v6u2uHwQR7UOuNyuyhBep2iCsiWdBkKUtnbMYlYppGhzo+AzYR3twD8Oe3pLcLIwMKj2F7Ra3BerFbolnxo45EEhBNkoA1ApxGMcC9ifMV6puLs0cwNwmfUyzysoaUP07ufzS/BB4jMHPibbTx10t2cq8FbrOOxa4DF7V+IPed5RMpam/FbWOZ8CZJQhE/JJ9Lu9odjU6ZLaaY+j79NdfMUOIMrHUKi5/POXAVMu1aC3Me9VUW7LMOj0fw61rQ8h9JTsfC+vsaafyDRKH+XGf0nDk0IPC3sEbg9ftE1zvbZgCapXuHmbY50ogpt2pGNLic+vJE2wqzlw8dmLtecSiBVTURGPm/tHij08FuAzWu0mGJIYuTr1P6QMoHXD9sOgLrKlUU9RvQDI5mRebKgxf2t8J9GOK8n9/hd84uPqHXcjQWeQmDqGN8Peqtp7q91Sy5UxqxZJuUVhiDfTOG62A4c0mRC9mTd0Om96g7csX7oJ5k7FTGn7YcEHWMBImlhbtpLL71C9ZZ4gf2BDlxCty3ZsGhLfYQ8N7upjGs37hgStjIh+bdhfnOErXl1RviTrYBL5ZHia45mX3BIgg+RmuBvjMGsNlFxI8xtoKyA7Qo2MkTkET21zhGJY3ncyQ4fjhC3aD1oVZQfmre2LwlJh2R5wLNDLx9zjLZa6FdUVut5QJ38gH8oUsDWknIzdJLMS02fxKwcOkLf8Z638KjOptIf7skNgZ6AHgW/bRLMPOSm3PwEO0MIbz9suU3jz1ZEKaNIhb2df4M9USCzqF3LPVlAg7FVidzgH06YouJurXufTh2MS8LCjBMS3pzB50VniUUYWt6nIlMY2qFHLzRjx/M6wSJ0O0GqGy+AzyMvsqBL9dxYOaqcXltU6Zd10FdnEmK6FoF5Yr8hnW6UtCnNNWFEzBO/axfg1vVb6Ut40SxN7j0fO7FOhemAEvfV7Nxj4wSLZ05F9bDoycM8rHsfADVQXZRKESrAKwLIhuIJFd0VIwzvPhVO7thgtfzrfsz7saFWra50Z8wT68s7L1sgJyEbN9nBmikjACODtgP/WT7mUfJwmEdZcTduFftpqNWYfOh/N/MWiX8PLS2mUQHeiHSYTaujVsVrDdJvm81bae6ptrsfHS/0LL87iv+in8phtGFpxFg3/FNCZJM9W56CPyl4FxbTJl3ZrcaRmaNyi16CHKpUElw+zf8bE64vtabebomMCPnmlLCYxCKPcbQUBMn9RoRL0pxiEMr4bX2Gx7jINr4u4hU5+aTVeQJqBV2IPWr3ukiX/E2mLhdsG0Q7CWaQX/mqP33XBS/mtgpspwsDgqg4h+rpOMGuH+iXoW28Dbiw78TTC9Q/TSh/A2vfPmNimudYz2c/Yiojc5WGTHhY+33QV2yUr3LwCDU8b9EKafBHa+2A1cryZIQHNgGNWvNpkINnx81ZyeCFq9c2TKpAk+MQ8yU1m2CAgA+FFJsEps1b2+M2UoJsxxq0RCfiRpJ2vwS420Us8YXYtr3BgNS/9LzuOyiTADmUFW8gfhjjNVOkSTsC+OVqFx/AQfoaPDdYCC1MBLx4f//0vm3jQLpLyBfED5frizvDcmOZIgz9RnNS1jiPp0CuFVo6PWTtJAAqMGxqEG6/J4FSuWTcmi6EBygkcBdNN3CsOpxcslEJCVAf3E9rmqP/ZRwFi0TqzgHhUQlLkswVrKUAPzwZVpcM6mwwdJ2/bWMxe3XCfsHT5DCEOcJg9400fvmLsuRnQfCHmxnl7qZQ55LQiWE94dtklJQvTaHVuVcEW6ZdfiFiXDMLzXpZtomv+ZPtLBJmKkHK2w+wIn8ukKKMXqn0N+k+Jd3pVCWGqUIAz4mqbyDEoRIaHRiQxN/XMdyWy8ZwRz1bqzQXwGVEmWBe4gYZU9JATtBTHL+VDOUzFuMWY84q0EjdgO8iiMIry27huqPM922g40wgpe1zeILBp8V0sEGb9GIyowOLiB/Bcx+UdrFkXIl16k+70emP+0vKradsWw6MtW5rxcjBAnG02wR7+QmqpVNiKpfPqHL9a5D9b7XsQYMKRIg+s3uSZSzuvZW+UjgKz8a2wFTchaZlB40P0TKQlCyv0Yt7yNo4UXZutUAC8Pksyw+LD/WJhZsydn6l3XJ/iTl9K6+aBOIOWhALjwpgQiLQAMUnmePRh0ME1iRv7RoZyMUBNzP8OrbHkGzienwuoaMK9d85jzHpTy5YZ4NuC01hn+NnkzpiSnyqwP8CP4bKhFMsxyNv9K0SQIyLcBvw43dW204RbBN09cy5ol9ngig6Z9fJSf6fetAoO9tuzJjFIqTev3tsOlTMYGEJYv6C+onHY74/q3SaOpEmviTtooqH8lj7hJqmMxuCmaTngQgWwu+9FJwgwRwaDjdZK/Hb7w4HAeL+25F+kQ50M2//seYA8UUasb6Dp2hgmzRUQRR7BxI2B1U6ObddozM8ZymIvHu2PHof2bcoXKUT2Y1h9Vur2+J3CcHW0DjBtsizSeO5MUxH7PskDDFhqNJFtNpB/pBXofkgTVEqE77t83/yAbD3X2cVKg4V3tEMHLBXWU3JqbeijVDnR5D9O2ZFCtUPEonhuI0RMhrRkN4K13xTAaX6oXRkieXV0oU+kgLkt3fmMIuBdyaSoO5hAhMi+jq/Rlizt5BPt9jSi1eukP5qyH3iCoPDr8hB4MyIPyEMHba4ozhA9sskxg6CeEydHd60j5BSSQoyXEcOTtnLtI58so6jPE6AR2MxbxUkzKJbnNyX22y+2xVn1qD7ET3OS1+ExR3XL/xHnxR3UM+H6IglMZy+kltNhwburFGPndSgvtzBvYIqUztl7XuhMgk6Fjor8JTre9xxVJYp4ZxXJtpFfe2e8bye21EDhXASwVNjW59ZL1gRvuogfsls1MNytY8UPd+1TdkVsLZeharCq+Q064Ix1Rgnp4QNk4gbTU5zbssxzKO8vcuyBpte6O3mH+wXtSAHPdnpx6xJd6o0DhlOjDhVBcLPsKc+UmqfDPWDZ33pvcVqZ1Wc/Sw3LmmkjmIHhgZEGsH/yh/VLZY/ddlGzMSesC9i4rMSb03AvfEGSQdJmvxkRAl92hvlXDqZj5VWntE4uujp+pB+M8fRPcqEVw3MOZXQjKkjgt3fxjx7ZAsZb2xQqYklEf0dx3mIPtxjXFShpsMNrmt2wgI2D1yrjirQu94yVIK4W1eS8IWnT7/dR9hvj0aOqAUSPZh6LmkRW9eCg1CAEpNjB8dS+uYet7QGJqvKlOm/HorsNnjHORKrwPAF415S8wE8kklpBzSrWDke6os9LUKRuPaSSJk1gL1AJ3SCWLg4hdPW8OQWnvN6h2gynax3qu/oMRoT/MCEN9GOeLHTtUGPkcSVSewGvqXQcN42pupxKrICF6msyZsc5puqEeiweSve1IVJ8vFhN9lQE64n5Nk3AGq1Fe4uXcJV2X3mNdEiVnkVmptTDtEwPWf95n/mlLRztFXJBtvHe5a5qDKvcdZ3EnmBQ8ZuIm2HG8xSjqQxBEIbnvNRMOOWx3YQpj8ylSgm+cFWeY0DPDLAR/6Pf/bwMM1buOScgpq5HwxV7r5DggBQHwqrqgiG2fumIiOvGDRHXZEANRY7r2nXueff17fQSNjm1/kSZ8DpDOrEO7lK8XIijyDOZV41d5LQDDIKywsFcFsDX4mEdmtPvqm6UT62Bp9JZOsKYvQLRFtxeuOxAFT27Vsp+rjaNbAbV1tFNPznDHf2J1OZ120kFjtWijcr24JGUhZtIYNlUnjoIxWFhZr7OzHZVe+Y9ldBZBDBfCaxI3S6Rdy/XyQIZSWVLM7IyTYopJLdnfiJWcujnGzpAcdlHsOIbqJdu0+ksbdd1mPCZM59pIALZTJJgZALvrbsoP5iERWZLLPhZA+mZXKOcAC+c+4fFVkLV5NYbWNo9I7PeBPI73XSREsV0gOIaP/rsb1vuR4VW6zVsEWlOuICOg/z2OjJ8rmKI8/X1BRJMa+w6gj2MwINyF1fGHnzzMuRrVsD/twipxde109BbhvhAlobh58Aben5gIR5Rr2lrbs4JvsEtyVcW/iJD0pvrER2xnQXpU4cQUG3DIySna5g5Z9a5xecIiYKZq97EokFA+gbkPrjYbHn14mpUfmmNsIC5XPCX0IrDtK7AmWYVMDWME3cl3l8zSB5I5X7Jds+2VvS53EDaDN3lNJmaso1pjfbvNE0vEmB+mXRWUoO//jgwd/e+whIObGqF7gHH0rpy6krpsT42wWvUH0zbDl2tmoepFwBIE0lQwpEMbk7OqjTQpLgmLgHNY9uNgFlpgRXRXrkEzhinBw2jtm97sUWP4gE5xW4cbUn6yyIuunW1y9QRD2TrFFmFHeWBEdo1JQ7pM+pwk7sHuM9b+MQj4lHajE0rs5aq7d9o9KGcvNFbu0sb8P0U3A9yNNZmOnFosC3MrF/toVL0mtNDZHVS4rv0JhRoMLCr409Er/DyA2R6TMflK/nWweue94T0eJWgmzxwxOO+n2d+msvd7iCDRWLcHOnB7nyi41bAhLCVY3ICm3QAG81SKjqXlMppgJHnzS3iolymsFEAkgCNVG9eGf1inApp6yRkldkVgoNwa3IYIAp6lPXuOf2e4lLEZfj59etHmm2bZAFnn+WGXwBlHvf6uTFhN/KfY8JaXjVemdn1TQOUyv0hH68pY8f8G+nrUbQBxcIWxuRCK+72deQA+fVFE8jyqd49bMYfR4MOvAxuRUux0JoQuDkJGxAakKG4HFD0YYJaiUKYrRIIxVUVaeDJT07GtnuTKTyFWakYO9d/ggnH8GLm5jh1ZO7tC+AtRsfzP4ev2sPCPmP3QbgMvgd/i7zMyBewjOK9BAYgJLMlIB4iViAyn/S2Ojf/S/oP0Pw/TZeED4RoM+xDXq3qy+uImsF0aNhmKeJMq22DI3SBFPwOiHa5XXy+YKJbNt6R33RtrtYNEONBY9p5lZlMqd22XRklp3ebtULcKnYI/QiLV5NyFpUioXxuqbtl5u6a5N5g0fB2FeVcxebHiqzeDRihp1myFDfRSkxuGAeJtoYCPFxPSI/kakd7ETWRxfCcaaCbWrxnSESYs1EPBCl3mtmQ4qA+uSqhrQay7hRVeo+Bq6g95GVtzpnh+MaBm5IFzqNfBVyjhJn9JFrvuEr0T1kgaABwIL3K7zaLaID9ATckZ+mBUVrmndSayKf1105qWX3+NB1XFlqmYDLKUMfbs4Rnj9froyTj27hxBcJrl9oo9KeQY5EB9wAnkjiFPbWVKLf3mO4uKF6GIFIgKcj4ZKndenVGhSQRsWAzDPEmA5em9FV4dN32N+BwCVMiSPxkchLaElJ0ag07xqBUoYoQIDsyvqsCx2JqAUzGEorH1ZZJpGfyv797csnORH+1SWmj/1769VLmcVRXwQOsW3kYXSlUM8mzczRh7RfI1tsK1/dnY3rHL8BRXzNHcEITD5U5c5Hlhj5voMUL++4Wa5efgNf9l3S70B1LrVhIa8Xr3WGhHT6jVecwSaTMaLGEz4rGfj/tdzZ8MEgdWCcRCi+qAXdU5JtOZtpU+cdIkWVff6Ll83sY+F0oVAmadrujipzUZPf7UYugExDbqc45FByiezC3VCtm7D++1nwdyCyIKi86s+Ehp4Ekl1ppk4g55stN8S82XosGjoWeeHWLs9S898Tb8KJECbnQ5ne5xITjY16O0eiVeymQ+kUiwZFtdZADCNnlwgcphVV0sLDvw+s/DCt0W7Px5nyoTRtKQMsrqOv5qwwHH7T33nI5iqrR3JM4Jt+VE5VPhW0LDponUyHz/3GqLx2VK550TnKhA0PPi6XwX5b7YodPcjZBfqHcsMiviVY2ocWIRXcMBRja2e9uDkAtx+7PoF0H88m2YVAd9lOQzz0F1YGGJ4bycmqDu+QdftDPpG0a+4Pm3rRQcjCGTtubt9GQ8hQD90/mNIMyM2hvETWPGlLZieTtP2o8Prjp8ppppf54G5LYy58I0H7covTy5GWI/Q0Ts3VcBJiDJDztTU52kc9j0q7Xao/nhsoHG4gc6DX/TpxNTUNUgsYUIPDMJMTr7tNQ7KLJEWfOvte0h71qQ3JbuFEXUmowRf98BJGKhJ8fDD/8QDSoPV3HYiw9KFwR9CTK7K+vSDZozQe01WJLU2OAX90gzkJgETUCtPVRiKllNnEsq8oOjGh2NIUDONBBxZcW2vDNPy5DVMM/KAHqr3Fxnpte/1xWryLip+NhmTZdHVD34ZWfA6fqY7pCaGoOS02khiDtJT/co/F/E8yvI8etH0ubuw2rRL7AkACZHG6moDEd22UNbXbferDr6SQMyVhDKH9jHXs2r8pA5mvhNVeJN/iK30IFxQ0QHMLgxxfl83k8rF+pikAnR3XwV/9ah0fL1FkEBFfb7f3OxQY5bFoNtgWAIXpoib5hy42reOUtSBjY8BsQDkRdLzF6cZYseDL3prwAoUEg2NjjZ1CgjKVtqf/TRBiS9HEYOkGunXI05+6BTQU/hp5iQI+rTvk+rtCyXfQmapFUeRhckdbwtR5QSj9U2GjjWoCVJROk6F9CHijzdAnyb75dX/aJbCsvMOdWonUGx0JVLaJbPlQ24cEiRMfPU9ke6JA3IApTTtkN/a0Zf97zviO23gARIwwB7b7uPloTo7r3iX954x86voMQehK3BD7vee6yeBLDAqKEJhV35MDXLuUn/+ctUTZ8g/sTkXsepXY+SqfhZKjsg/FyPTT74fqAg39ewVx4HJm0y+yvpBQoY7iqHab9Xxet9LwoeSMRTWeHTZKzEAJP1Alu0BIv7+uqzKAB1STYO9u0Cn0Go3a9EWr8PyqIJGhqQr1q3xwTYMELChAejfSW3fqgS1Kom/cGSvmhO+85128O6tbzZZFXwYUUmoPFV4CQ8bB/t5fp94EBRX9W0h0SmNfOe9awO+60lXXAZtB0SB0zpZ/APRnyixkKqs5s75qJqCdFn5ACRrlynIfoY6Q1e1Zou9UvBaCPmdUI6nPI1HOvd9uwMu7VMIJA89wB57mvt12g60KWktJJnJXGLqNzlfY3NPJpqKTbV1eXu3IirZ7tRjPjS8Bd56Hn2oaGPU3Aq5M/RMXt9KarY33dTQO6AdlaBwohpCv59NU0BVYXWaJibn+5YPKeBr9ePrb7WKw0xA5WWmsDDQWNN33X769jcoLHI9fU0JzyHvKS+3xeTYLRwWUmHCrCjTd/qHXMvVHjh7o8wQieIM4GzeLS74Bo6YL8ziAaWhIh+TytJxzxJyIZHgB3S68VF89OmO64dJeERNKxfsNdAD+utTjRUpPl0mVXK/0DHIWhZOFvf9D+osDJDywjmnMHX2LXexkZYW9A3DpVwhw+iPc8N/BQnnkiV+y9m38hxtkcjfSDQ5Er8uvKZ6Iy0cKIlmx2hEi5g5XX3keP1apNlsk5LX71GBIj4EP5Ymy6xNIKWaTsZvIgfyXUkUy++U6fTobhHFqZl2XU2RWv9qeguqrawCpADKsPWMXyTmmpBiHKlODJ7vfeDw7Bchrkcb2i9DJUN/GyiioG2y+3o2Ka4JlATjWeIMHHsxkWsGEJH+c54PzZRAi2Kmz+V/yXzyDcJsW1j7rRzea+pKABghXrff1sWpY5lU+YaHGTSETdtwoAqu+c9Zp+IvGG4r27gtfkja7zPcIbZfbneI2Dd17A/lD/SoLBCuSR6ehXIvu+Dt/W1wvODWjRSRgI98KmIedYzn1HoYvNXW2X6PMGTpVnmc/OHXrB+U5rGFjkEQI6yHUfSbPW8uhMDPCVnkMcwk2WIkM4clKqzV/MUMp3BOnp+jnhj/t/P5HOKDrGIdAsinXUp/c/yXEgy4L93rLWRUAA4qJ8UULhJW1Q2m2vV2Wn/xMbuTbnPRUOVTeN5l38II0Mq492bsjHjG6+sXo79dYbCVA0spNtFGJxj+RNTtuHDXCevX0cfU/wBKK4cRBUc6uQMouNms6GKirbLV/Uo11t4jofaEFkhzk4uDfjQ8zLh6JDzsfHXii/i39/n3e6wzRnxzUIWCT4WrZd/jc/0Z03kGGjV4KUsfmxEVwESHQucoeA5zxRk6Vn0s1sbfI/Bby93bFcxA6z3vzzNRAafUlY+0PNsK1XRJUZtZkV41czMljhzFW7RhTOTYk8fyMwqz+P/nNWJuz7ey0Y29Kd3rzSopuo6orDkPVYH7IVtLwik+IYWkUv7o3TJDVVJMriLy7hZKp48TEBEn4Xe/3PbCdWgajRmm0n1cu/MSy5pn1evW7xyYypJFQlxxwmWsJawuYz9hASQANa2LomiN8mPom9cnYq9+Rbf2KYKLA1v6IguObGci97oJcYhOI+vrPpdxuwTjSUMIcUNSJEvHbmg9e6mD4gRT0LVVoZdvLQqCKlJTKvMMEpIZzEqLMXSUUb+T04tI/0xCyPIbIZzGmdJHGWg/duGVOSGJNR9YC2ox/7aIj0fwp1mqBUMpMuoSVYHBNyAeXHD8iuyXV+240MpeScDDBsWS0jXGcD1I4gGg9u4Y+Z114ESZ6ngNO5s3R/AiTtUFWztbeZ7WdzC2SEu9LTQNG0rOt683fTXUmM7rJV+DOlilRfijM6Szfbvs6GIGLS66LzKNCOw9CBnL0wqXhhhMEKWyk3vhaiEB6Ug2vV8iFKiOzzH06xhwMuLEe/zyBft5KucwZdAceNm5A08fdRVuKu4n0kxi0k7qcwsH+rQi35E8Fuksi7Qfj5crvZsXVLxVICnxLq428lhDC4ZhGm6qMfJuruFitlKvw7P8H0EEJ8JvXgrloJWFCBcIqzbDxMmR1WMfyvcxybO413HkRU1RpP9QiVqCppNfBCkfoqNc70zxLEYKYz4bpJ3gAZoUnTUmO+re8xydmxEb4NA/UCSR3lCSM1AbPFzfebPknsDcdwhoLrE21LNdk1OyVNtqWXDK+Mg2zyjpvDvzOc33VALu6meCt8VeXAqLMnS1ghkztLx0tloGrzc1AW8K2i0rPg5typP0WG9Kt09lgRU0vvS5n+KcTnniUuGDr9KjWfA6H77pMlxnD3xX6tpEZH+thkReo90hIJJQ7tRf4jqRTddY4y0h+4PUSV/7TyANYAjs8Sm1CVbPg/bRSA3U079NG3U4vCSt3HlO9/Jtl9YffFxml5f3Yy6tu3S1qsAXSwdkbhT0cvuzUbmNZb3ONiomGv/Nwp2RKvyGko2J0hN1JK4CFsUtvGmnRvma4mwKUI6uL8L+pIMuLh9V99ztNtHRo/1RaB+Q62Zuazmj3EK8yV+RE27vU6MK6F/dwEEuFNaLNZtznXeKSNjMNVzm/O/Vtl5mBPzz/DNgbZIqNkacmxoUmmGmaDS5sbzvZzV+ngW/958PpUVCyeQ3V/SChkubpRuqHjd7CFKED7r/VmxZ0ulUbqGqoEzOo6e16HhM2M3ekEacI/MDnSEw9tIHyiT73HmDeWaeiUmDqnfR6T4ElkhZUtbSa2qxgf1rLrwX4Mwb0aT5MjzOgIfA101Q+HQRjjxApOH3O37qzitV4Tf/mhNk2l455wQCLZpFW30Z3p80WQe4uT/LlkBYsFJ1ad1S485VyxLLJN5BRaivNssqt/4yXVocHAo7yHmp4USXiqOh9KuJn/YxZR1gwHffhmRa74guSlADSeWge8EYL17wMrhYArYuMNOtVrLdWb/qfsXpF8qFqyI0ZQT6Luur3HoNm8Ld5Yq684c9qax7B/IrJ60fGYoMSRajTDTj49zamvVkC82tIeuKcFZesz/uw0/rUt1u7bGA35OpTqbzfv+jLqQgJG+jgE0BEjhN3ggtvcVPMbdI2ROD+WP57pCDF4WOQMW9eH4dpdJfz/iut8gzqwvc4acDEwgzOb4kb06+9SLe+XzIJjScIoYQBScD7cBdnDcUU7gLnNNDp2swBSMuYLEekdm3RpAbAsPLs/HGc5erw5k1SRjyLiyOVPcVfd31WLzldy2df5crrW+o2CzTtYlLeuN5oPYTBbrUIDZkX0QFO/Ioc8SaDt7w80X9uGcwpZs1fRuOkKu1xMrFTcIB5naic/GsLFJEjoy1W64BBAwDMK7jBlJtQbMdLoo12/28AQGrU9B2ikuIRDIR5e/dJmVlHewDwj4pT8RCRPSNVVQakt+Gh6Ik/PJzHeBk5X1F6C2Q3RRgWE0O1F3RPTYw6K9oEucqCdvYKPxI2bv2Pb4aRCw9FmfgPa4a+OUsyYlQNOgbejp0XIu69pybQlHlo9YIMz0RfqoQu7dbDVhyZiDW7gwNGOksFtjHbWqG0JQ1McOV2F68GUqKQ+CM+fGqgRzNL0Q2ZstZwmoPSHe8wBiURyOENeknu9q54IL8xDOdRcwTDOUQ2+xdrIZwUmnnV5DfldFgeZHi1lw6P2lNEFfg04PAaAeNHUFXOnQ0KMXJY/oqf9GK1fypAwH93pqNleDvVd+y4cQ0AMP7U4OsV6FGJyKQr5sF/xRCheUvxR5ZwqC0oL0CqoaWUxA5jmwg81VGZg6q+06tWdjYGEZC1SmBkFD0tjEJ8yUvh1xSO+3DTEQbanmz3oCqzUylTjU4ZNjmv7ScfqMzaFNPnUvEF+8AsJk3EWHq2QNnWb+JKGYWnwisCokMPZ/YLc8CI4ivKOac/eLKAgGvhgHI4YmYOcuUUXo0Qvb2sUhJcNrmeCsws20uScZW5PJ3vXR+7S4nmeCj1skeA0yWAyRMb/UaUcBB25aVA9e3NL9XXm+z1hNir6fm1HrvF6X6gr7ZoYZMK/7bZhBnNPbUJl383uRZGKO/yMxKbgtnFnTRc5py3p5bfk/MpF2pvD4XF3NFZjpwiz4e07Ei0a8nNwX3aXJO1+tGZMNSYDOXiOSybE77SK+rljwQECtileFg19I9g7Tt21/J+iZHFUErq62j/Ah95/c/cGnzPZ3AwIhJWMTKlJBmxPiV6YEOIeN6oCRF7KmrfKh7veJPD94AlRmr9pIP0PA9GAa7O/J161mIjEm9Y8+jeoc9n7ytIgER4osOmhNWvFYAq+EjJUV3zgy35H6ZD9VLjFv7A8Orx4O0454noQ8l+RfurODVJknzDfKo9fQlskILyrxX07FuDghov/vef2EsIKj7ehvc9UjWJJ0zOo5+p4j9hJsPIaXi6JIYN6bU4n4qQlH3/hjA53MKmX9it6gJtRa79xfjZVygb+jbSvfCY5dCCr3TRl5fDBVCMHziN/ZxEomWJkqrU6xeh4sLJNpQPH2KxJRIP7NeRy9caR+QwjEUCxyD0jLwq9IAKxfVqV2yP8N8oMJASHQ3vZ0KxZjTZiAn3pCHzwvW9f1QNejspAZEsH4M5yaF1CKYY4a24vL6vxnI9HFumstpmMGf+uOYNEPGMFdXA+3gyb//sS7/aeqptt4CxbTD2u/ahe1eyCxdi/HHQNdN/g3Fj8yEGQqvpYRGk96ELzcCxCZokz+L1/oOgLFE9FTud43WXvJ3QKQV1xnQ1FiO/onUCa8lrVSMI8olSHpuYpMOXVFKaDJ6YB1A5ZXqiEigO8E/+KEauw7aYzIeYbZDWsNDEr6VuqblevFg4BkhqSsEpMDYD911liafbo6RF/P+ORYT5fMcL/aa7CKX7owo8VT76GX84ZGiOmSKZrYDfx5NhcRQmJP3g4EuV22DROkcO1Zsx3b0FB3Ha+dPKWAmoA9XSp45rJ4mWasbZ+WoicgZupYVkAIRuthYZxH4URNWJUb/Ll/ziOMHh52LcwMV5Ep8xoUsj6+MEI+MWtfRhPOA21n5CfgCIqoiOZwCVeJcN+526Lnl0E+TMiTvYBSD0LtD+hIda2pDZLdl7kPYF8c/KQg70S8jeEB5vWW0o5oT1dnkdu16uvBE6ZdRGa6UISecuu86Zrl2zjC8LMpYtr0zmPzd1BJ+wBBJpINu0ckGq187RezuU7KB9mRmNSieGDotB1dfDL3BUp77ePLAQ7PrLxs2ba+8JMJxH3Txrzmk1499LPTN5XDkpmdkod0SH1D4pG7IDDBehhNi7yUjnkA+6L2fNTwHw9mCBiIrOXZAgOYL6JhzbPscHjVsz4sIbEtupapTokWZagtz2K4dOsz1xFp8xekz5MbFA/yzKyIFAddwzOsXH3LZAbThMFd4JqylvqriZw2qxTV6hKgJtP7VTxnlXVSpjdT184yIef+mTr+cINfwS5zpBamFyjIE9E4qdlYQTrnnM13FQpREC0FYfV8xHEW9BEtX2VdpWpwEdghptC5QrSRYxcMXA9Rb4LdFG5594Rk3qT86wCwAWLN/L4z8f80vMmgCjye0PUioiF//U+MCXl3AHxxxrrRkg/9Rwqav3b26l+aueZO1lfa3uQ+bSLzI8jqiQzEWOttKIWewiaYMU/CX3tsJxffNbSDxn0bAIHi++esi6xBxgzC67BrCMcH/UAUnO7N7Wdw0P+gGaCmmXa3thwjdA/7J1CW8XrWn4YXHVlLJopGOmHHS5iOd4nu2be+vV0Mmva/DzRa0eoQ/hAR40QAo1K5fiGuI2JnGa191UiQ2UiDqVw9kUk6iF7DaHOGhoJCELwqT2cISqBDmmw5T3jYLkmhgrJSQ1b8gFj4E02HM4O/rfaEQemij7XH3+jC6KTdx4dvrNlf3etA7kbZay468ulrRqT2nwYhTgswyFT3J1996af76ZX0NMYUdxaM4wYwrCsJjHYcdOiRLCj5ayw/leR5+TXjg2za3XUgwPYQ4oVOvDWk6Uf60wkQPoLT3LEtJWRlexwHmPZnwCYnxQRWRHtYAB63yOU7kPTozzYIyTdWrsc0a2s0IGdwkX/M4OFC8bdGsSwx73JWTxZtweKyCPUE7IwB9al/L3g3oraVmhqAJxTvHIXJEM4ER4J+rQGI4OiG0/ujfjzSO6T623PnOM2m3sTbJnbhRlDqSqWpjeiDdoUViMb/IQa+7AzY98ZS6vMsOyFwP/myF0JxmuysXqm88sR4jHnUkLMeoaOxPsEYdNswjtpHqoHwlGrH6VLKGV223qRWC7Tk1enmGqAuUqcYaK3n9V/E4soFRTLpuVAjxpAn0Leap0BHV0EFjAyK9Di0vg2IfzfjB+CUVMDJSC1br3/3rPh69xSrXyQzT4pBv3LKtpFh7iHCipdFZlXvjp2hPx3Vg1AfKtB+Vk+yD6L21DwW977qB8llflSFSs2NM/aetDL0wGCvmhvRSkfy1/0cnsmVleYhpshwhE8mx0ZLuzvyI2TC2Gy2yQ/MLcsDqpvl1+rjD8/d5nQzkY1YhT8U+iJVtY3RiF2D01mSYQ1v7tnsqMePfYbPZBGbX7aZZ9MOXr///bKc9+0p7y59jOXyBe4b4lSSEoS/UEfpD2Dy1909+VqM567a50YrSakZLYhAwKhvgBL0bI+Wd2Wda2/cubh9+1Mw0injSXdzQKz6cJCR5eG3Obd71hW/PzkHYDvX8RYPXK7JOUqDXYsc/+/hn7xbrDUbu4dop7rhzcldYWdqwhfB3J6CJAYYELN65QaprkNpxezTMGOCV0crrhV3YbP29XSoSsa+tUnlNlWZOd0NU/RF/xc03SNecQJfB72HdaSECdpFM8xxyOVy7xZkvMhbxSlCTQ2TVh3/ME7o+PGAs2rvVsAQzByzfexCFTnRYJ+LtdT5NwA9Q5nsKnsw+KmiavkGURhOPFqnNSqLS51acFsNwdx9zz19K9rcW/Uh/NHPjUCqH5KVNefsz3uSRfLHldYjPLE1elR6Z5U+tezeap/pEZ8HblWtsu7uiM1gCY0pXJIUBTlxRUk5eqLwcxUZYMtW82kCOEkhhSEiIei85/clFyC9ABDGbywcjYZxvUETqIrO8TV0gv4XSTGZcj9QfCLiSUj8aIAkBHqfObuFNxB2CseWr5huBOUTLx9GS+ec30kX4mnAPmJDNCPjBY0D5wZNGAVoKFtHaPcHmf+vxFu1e1Wb5xCWmsBtzg7kGSre2rqSpJVLo5qsVytctkv/6TAdAQPcqv0qE4JnQfCp5k/RfZqcpNdQdmGwtVS7tdcF4QA3m77vY1LF8c2dJZ2VVETqptrza2PdjoONr+0Fs2pfe8Qo0KdzMqp70Y0qU0Br0kAnHnTMjv/aojqiAeZzVNE+D82p+fuC9hJnIYx/1q1Z0Q0Rx/03Ccaf+fZtolpFbXChoN9pA32oHFY1B7c1WsyzR+5KnK8Xn556ref76pfMwJeyixitBHFP2IuK23ykwMhe8XMJ5EPk8CXPcXn2l77eAHpqAunSaeHIKR5fZwb350a7750T20sBlUgXfgbYCsp74fj5H2rk8RXP4TJTR3Hu/7C9E5OHRwnpc4O9vpP16wjThlAfs2bkPQlXeLk/NavCRhSj7cDhd7Smzv1WjBmEKgPNmwxU3MSquvyrED4gBhOh9dTQoyHQJBYUdahzQ0xATm3QXaJOWnoWHURNSYaReAu3v2sCW87+aZ1Q061bCZqmORty6K1+onIspgu4R+RIf1KCXxoSj5LIVwVh0t/1TT7dSAwAEV8pyJE1FKMpKYmTMDDE/Viyp9kxznElM4J+7eyqVdDnwbRrNacorYVvwNXoFh9Nm+Hx74feIzCWFJ7XJe3SvMPwyA0WPdQhvVzXe4s6sDjLGIWXolceEkty+HvFIdUGrOkThtzfkMsqOVqdHD4XDmJWLPAYDhzGFif+BcUMpH4g8HEii8+rVtywZRRToTLnaKnVySKAB0SQw4pANC8aR0+7KpDj8tXsnXQLxfNxq8027hZmP8oeeDkvMWT4OVz4nYzwzyRxvRW3/AiVlBTlTAaziw6OD42qI5jjlaWW+DVcjXzChncODWFAyKLBfeAdbYgYHA8+zwzaBnn41HuUjlOMntSxJee8fS5Hb1MUDumt153IXWozFnQfD2k0KnQhy9B+P0FzwS2Gx+rMf1x1ROO4wAu7nBNWNDURZ/MvX+R76iKgWPC+OQ4uAkaQN2tpB7XrR/XIfNr9qs48MkWswWUaYm+1NoG+r3cIu/KhQfOnqoNCIggqWgf1ra2rh5SB4qlM6V+wfrPmQxuSz6o/juHkN5ZCalArF8b+AMAX85WJq2EOs/fhYEi9cj2aGqXzpLfNUTeQVRv/xxy+tsIfCG1ONLQFpKp/p4vM95+v4gC9nEy+vUnTfw6Am18IWFLfcVZLKLFXwnc9PTfh1omXEKkc1xgCAmjQZDAbkFS/8Pn27fHNhLR3nSaZmPg+LUAp4ZZmm2IT9VBC+pKG4xz7Rqiy23t4Wd8nZGUkbwisSjDWAjniYUxcDYFTNTEjnJuHOAuU7tBJWzj48iEvdbI5l+RfNRNIb1lh9FgWxhsjOFSzEp0AlDFFQb0gKrctKK4med5zaYDpN/jbtXYhIIEYuwWrmOZ9xRzlW34YhztXx8B1JzzJHTpzNBRctp3aEkmhUEtVYr4x8LX2kdk5qkys+7DE0aCCakJfDAOilM5mQLcGAg+a0GuSR9uQzZ1uyLJbef3UXFQ9aX4tbJQcbYAVD4dccXGHN/myfbTMdGvIUYzQ5Ble+pX3Y/A5X3XALeQ4wX6Mh7cbvfTh/SzveABLFRUNtKouQiOvCpHp8eTG4TyGX6ToqKzLIH8JDBM4vrTUTlGIcoH4IdwsCiNyMk4T8dqZYZwgmS2nf60mTnPJ4WKTQ1NeTRVQf7hqzEC19cZoR0jNQYPg+PK8tLpcmWCPG/JGUWkMbPPm5ktUQ8c83lz0L5EuuoAy8McDT0MpHpj7zGwFp+yXjihzadCxezLx8ahud0mnAcg8EhMjubvJ3U04bRcIQ+hEqDOPFtJrxisdx3HxPFcwdQibrzfr1X7nZXk2YdculekJujXR0vtfGWCDHC77PgnMwrahxdY7gTiwe0qQhlZUMGxu2tWDl3UgOgdgRM+G09VL/uP7oTGBXzqnJS3N7ngIstLyfk2YDn0bYq989xV9PqCks/zjKI2hS5LhAvB9eXIiTxF2MRnPD6B3ox+dVGx/U2ZAW5lmmYr90YoYHuEWejY9whg7k2JJzI9iStAX79y5njxHzaHpe8paZWiUTEXgtXogtQ5yLYTOWYlOj34X4/7PqxL5lQxLrW9prwkIjSexMY8rectaXT9Xo5LklFSUcYMyJeKlhaQehqE5mABkQVD5fECVGVqVKbIS3MfR235Ldl93IsCZSgoiekpDtQ0xu8iuJGZv1pLAsk8yrkpNzqIjjZ4by0gI5KTZVtoMGIS/Qc0zbq2ukKLRL1PW2sJbOzUFft41hpKicQaD2GpsoRsazeLEG2V4AXZCUDf/9cvsOd40M+JxW7TgB8ZyzQlx7nsX00ZxAJT74AKRIi1yg/qhrN8Nt13suH4ndiENjsP6Y8tnTphvi7tVFh94nbordpPh0qsDyla+uiWK6u+DWfgvAPhMbc7TEPGJHRwkJFHVhQNReqcf+8j79BwD2/KujMY4bvPw9tTTtet0Bz3xarkb0VjFkg6iyahVjs3XcOOX8p2cuiX12x+QbRw/VJdK0LPkFkf64xy+hHzjPnsWRz9EvN8jVw+Ro7t62HmAMyp5WoL99kWNLO/90UiyTX39UoP9JVGXADEGbobqkJ8amhv3A9Nig0O2qXsDTaEFE9mfxOj/mY6tsEvgdsZ6G3nHlsW31U2G9OknfQ0im8DUAj7qV32vlHj9R7r7MR6Yh6BzC2GmfaKUqDNETFoMKsUFIGMoVGpNz2vm1/8R5w6re1rs408axRCkh3jii5jzqqDkgg44z2k0mVuWaA9reH5DwK5urhQhgn+Rp2rsGBqX7j7tuBFgmF+IbXioTb+jHW/wp9yqgF+g3i385dvjamRQtp8Zwv6nTq0IlLV/5C8uKohth8adU3rDnGYnz8kAipGlBO8vzyCMmm0Ju8kiclLIC7t+mA0T8gwgzCLnQLrEr4tAs5ZdKoB8c8B/ZDY3V8NbCBRMvfrQkPkeR/feLIOXvs5HpwsgjrGpuqo+ioNkQNr2DZmL5s+wvDv4G1mJIdDe4jbii5KgwPrclIT74T9e/UP0CrR+nMCzvN70q3ndG+iKGA05qbM+Kebzc7MU46t//w9roeKSsoVWwDc+mK4ktKxqSSU1n1VuhA1AwgtC8OOi6/exs0KVmX5Qdii057F3ZheeWKb6gJThkshkxCepEWTJSkQJu/6kp2fioxEGHAw8bYCt0WtcKEgfehQwEhzBhUcym/5Vk+I3zyDw43JHfozXhRymrnzxRFgpIDP9QYXRBIBZorkajbkMIVUnETs8k4peea1InaiASYzzR7M/yOM0lX5eiBq4Iv32U0MxLi/IkjHJe1p+lwK3wlpvycfIVZEivrTQFwBstCN/z7zE8DGgBSRUlnJ43q823pMtfuYlw3tfMyUuoCqwizA96QuvBHwSneImrtvb4KQYDvbTLfbfBETexCYyUkJg8y4eEZJ530KqNopM+VfQRqyapl7klfWTDmIJHBq8nH/eE0Rt+9VOT/OZ/f0geSoDgWUz+oQFscsuQoxO3FK7fyVTdv6JkwTS81jhR5XV8ZkN4VqbY1Nty7rePTz0AqxQ5EpKim1Hl+kO7JXvNbdTn+bYFNHQrd2RsvTN25NazMR31WjmTtNJnhayUmf8NeDCE2hcGl3qgwPTGkaSgnr0gWK5uqH9b6claTGtckYDBt/oBDNP+S5hufWRGI6ZmuVYZvxQ0mwUJ4ybwYrbbCArl2MdV7kDfP3jdp5M0MLH+9k5AfsxC7EHRxSsXQAfxS3Pn+ht/MNxFnynfV0I6dBVanmNVpygbMmW9Vnhz3Qp9UkUA+qDlqzTvyzXjbLrSX6/EsnhzzVPW0B4e5pvUDO6dinTGnpOtSls37wgFFRuaJWTmMRaq+Jbc02yb0h/19Zx9wBn28MEkr6XtgGT2Et5YjxaHWIv4Edd1OZ96LTgTy/jcGUyKsihaSZlc6lLTyQzD6eIxUb67K//rXTIOdKMXBp7HGhAd0dJHkF4ai4RshoYuT3kOUmhP90VKLgkjP9Q0AggwLLdL6BqCqltehTmtbIJXEufqcQX9vbB0id0tp66/VP+lWTI3hUWiAzJS1E6lEJLIxg6HL1AOdx67pEcMwVMNbq/4uFc0Gtfq45P5mlGjZn7eE1X/Fwl7a85GEdMy7qAS0M3LVtktvFbFrYPfjEqxXwChd9YAsT0I+VJXJQ4ziQF0L8IHD+PziyLkYrDJhH+ZNwB1u1QFMzjWxzKDQ70xI4VSmdAAlX/FH5fLOyA8wPKf9pC8nUU7XAHN6GTLFBUwcxvc92forykMN/+EsPFRNSRDhdTy3+nDyYultSvpasvprIi4lFpI1xAT3O6k8D6QFcoFBTJGaTCTx292c1vc0b22QTsYnikQ+mL9Tvf/lAQKy7iG6KQ3ffwjoEvLckwOiktqpjRGmDUZG5j1DO4LQIzyaV6jsuiQXsvoIvLP1U2nt/YsLyBefaH8dsEl55gCG1yxTmzDB+WHKsWYqcH8ooyYAgnx1K/pXEH5/QcnSfSOwqUBS1EVdGI+KNiibCeunKPff/LWkak3L7xmoOVjSxckfqRtJVM6e7GvsDcI1Fdq/hvI7LUp67xZZ6ahtCdHKKGyBcbZhaX+5QLeZ/0n+rhHOL6+gg8NlG6SozH/o1VbYjydXe5G8Mz+3Wp8zIO9m9t6WRMP/vO6ti6j+HoQHqQFjtb2zIZb7wY5B0JttienRwGuk9b2gAb6cr8WxjhIXuYU4IK00mxFtkT7jStMlltaPaKfhJHeMGr7c9/HJ9mGrcP+dBGix1TeR5NmwLdbGoFVoVHdbmjdrFcnM3vuGWD+6iR005G9GW9obmW0snIxpj6bsTDFqqhjBwVxQIS/SIy08yJAMDzA8x93r6asHRWkhIyTTAwfSB/BeJw1tqjMvf5fiqyQy5uHqLoMTFQKZ1MfLqhhbI7ArxVlF0RH+g2t/XEucScmDvVK8qLOtk5Y8/EEUGcVHxhq8NjB3hE8bUMIgEzNFMtBtVWV18DAcJR9tRrme8RJ4+1NssNW1W18RboYGoRcJVi6esF0R47YcgY7lMlPnp0ukRrfnJHNEzY+5y7MJWmPjae8ZTlPJTMkmmAiMUCfuIYLzo37w/vohsXGihjYmj/drb6icq0lE3ckODz2bWwx0tyGbZMukO96BMoIKwp5VhLJ3LtvY+rhM187jByv2jcG68+41ryu3kFMqFvXY0X9zReTnSwNhna+UaCcFFv24o5BMGbRpXuX7zAJ7aIZaQctoUW+nXCiTJBsbI1Vu518+6jL9jbpJirexjLh7UdI7OceWfzG9brP99019gmu8tzLScial+WpExGhHU8+3+gwx1xewZunF+dvhDSlb1VSV4AtEW2BIVkKxNMsp92S+JvCtbUOBVedE1F/WvTkUFBZI+pREY7F6wtbF80eXcxt7M3ucCjwpZd2PPJb82cJiw4agIjNce4ntSDmXQcZfwShNA80nKYZ3x186dfpl0UrT5WUQ/Tvo9aVr6lDdZhi7EtQ4HRYBwCWgRL14bu5NeeXcxlEr6MA8ygv3Y/K4qzquQT4GsVmRQ0TDAHg/BALCBpwGxCVv0UJTr3Pvd+SGCxk8EHbKEbR4akKjX9+TOARWvoVnSONlxKGEfDUggyYGOVj1v/Rfirid/5jaU/fVukovNBfDEm4dmUV9gwyNjtJDNyLzEmt1n9EAQgQGUkD6ne4hk5NWTvn1xbwADSwc97g9sYg4fylycCfKNbGWV8uGSfQTxFGvmSMUQ0DkpufebFk2AYb3oyz9nLsSnEa7sU2Hp33bTtVLlIA2wZyBg5ZxXt2Cq3D7Vzbe0+4ZwYTvlupa9cVKgWIDPEAzuvDWjNIdbCKmbpGlHQy7IJY4JqQqOOzRJfM1Mjz2hC0MIUoFJp4Zmt7MLMeDgFZOE3bB9FHBzYrKpfpAB00vBP8iNzMV1YCEQDM3XQdbBIZ2O8MY1wMEt97eCmtzbJloSYnZh6dp1Uyub60YSRezZQbFeYXas+/3PmpTpNN+04OiFZk1Ay+a7HNNa6AoJ3QgY7O42xs2hI3dTRXZfXy86ORW6bR8icc3ucnb+hNgyIVzU2VH1ZBgBoY8Gtvw7hTEMe+H8THcwqUkhZLoSMbQzgwnRIQWDXNMZ57tzRat+wEeXeHa+0eRBCHj1vftHivczLCky3zrZQVjsPZ6meHWWH7+uqSo9FmmkOfi0sdy2T7h5uITEy45MeJFMWbJ1O3qlQO6FhofMvA0FUmgk52zySL2isMAxQ04BQuqhd7jMUIXoXVlicPLsCD9OVWLq1wZODX6QvNU/s77SiLACpWMG0Uk3KEnxIsIER7vfC5XuUrxHt8WrzTzm3oISPzmtzEZmIsfyrpXuTCxUYI3OxUOdB3P1e7QrOdjiKoIZpOY+1ruWNUHHtwplnzahnOtspZVQnT8Of0yaUCM/e07Ylh3nI3FOWOBj0tVi2fKd+MtyKj82FTV3R+kZFIXrtrI55pBrQ09EbNwa0cFPF81u8zAfR2FdUl9S1hbDks5pFLHFQu6SRS6ytQq663K9PYYDubxYYRUMNY1EzU+KOQGhwWPUdERA6GrCSqLXSUlgrQ4dEFT+Jp+FxDFzG86Zn2oRauukJBbTt2QkZirScooId2TvlmLLZTSWtUg0nxBamA/RTMOCjOTT3xxo+l3pM1ux6EIqM67knryQBjJpSY+w4/ogzZRS5mr4iADk8TpCsCxpCLl7G1VUt2Vjqqhba/2cLq52ADd0LtjGtjw/4dV64rWpd1thLh/AusvbxAOEzg9Q85DPRWjXgeFgd3wVl9ypfdHSgcYFEB6OJek9a5kC27ALZYuBFVqTUwLmmpYE4sYHwFxipN3jdTEWLB03fGylcLZbYRi49Vid1pABaErzCm7z2va+fAUzfI9iDckPVQTd5v9dpHTKyxaAH3/6ywl6CCox/4vHRrA4c3ysEglZNEITz2Fk6ds5A8WEjhmBShRKKN/fMwIQNySrBMe/ufBDOHGUf4lKS2wqZj0MzuFldy1Lrs6n2ydtcXQInnTQgPhGRyslg4brfFZk+PqYS2kVL5kzIPW4/rk4UNdAyxMSFb/eqTmYqGogIckfRLqerWStv+T+4G9LXfTcJnGMlZMSV39MG/NIDYY7gJpKM8sOrVl1HXxaBIPeYOZrvyqThPcQoPBM1/XAl3JYYl0schxvlmGFh6oEnQIQEWlEJyV1Nt4TpHEVZc4+d6HEJLt/3w4Z/wAVs3qWA6tUXEXJyr7ef+3jotbK/Mk4DvV/YT0rBoRHdyMmTe1tEm0QIvKzF9bNrNRKBzK9KTdFWkT1CLW1EuhvofskS+pt95tfsaVx9ZAJYZvVjA5U0NZQDIZYoEot6Rl38FlDB0uConHrHdpbXfvbjQUOSUDTfjnOTLU687uQ8GDWzKlkGl8x/AgsfN3hZQdj+P3jn8fiFNOjsrWsnzAJbjvPukJ4Hx+uMXVLPVI56FiFsX8YybkgwNkRlzaRRAKpFZyIYE2U38no9BQEbVKsFuWYAC/ca7+iAYp1stx0ajTtJlg7vmGkQkpYfHNjQ5ZLwqsJaeturf27UPayhsdjreaXo9UxJIjhwZH0t2j6I5zPpl0FFlss8cechjMAKcT37w4RzGN6PW7uc23fLeiqhvErkRPk5kfYiQBilo5hmUlj+OZC6OpsCGAgEZW3WxWF4LYK9RBI0pN3gDjiXuEE72by5PghPLXJyzFMDK5+jJYFGujBSiAJPdy/pUKeyTWFNNCwrfLNoOk9Tn3ppJogQKXtB6Cpz+3Sk+JIzu6QdRoa/AzTeS/JDosQefU15BTd4xs/5al59mG+4fMdlpXeHp5VJy8EEvt499hCCP9o19ui62OEn3B6aLZpfMYq3x/6Ul8205+/DBathJX74lz6eeo8/lP5Q03d2FpIMUTe//6jhOQ0AHj22T11scqVzuc9qZmthlBbyqGj6NhQuC5Jo57RgbymWEpQg6NEMDIZ4XXzVBPT/Fwqossvzqw91cLNNgfwgoQrd+JgG5Gehf+vocwjnMWjsvgE7/Xo0+8XhR+9OruIeZPcxlUvxE/8PN4lBiQBwpEjQ5LR3Tc0L2syGxWbr/vqC6OFl8B/18oDqkG4UUIApDB2uUeRpzfmCaNmZrcZTc3t09Uc4h0jEvPqn0VY5enXvALHb+/KTkMYMAIFYCjhfGyBAUlsKM8N732MwtR0TujfLWWsDg41sJWZV3BiJppnG7CziVRyFdpWzCf3enooR5xdyxJhnT2af1Ce3TWt8B3II5rvJ4RawiWz4l4ahwywWT9uwPRt81FfWBxHpiKc5YkI8kIdrEVjpo+X7xubQiB9v1R5jY4w29yEhPjt9MQwM+ePiHHeoAJFogK4pBEDyAcgL1ATekxmOhM+dKgLjtTlVsEdC+R/eA7bvhckjv3IDIugFcovmDNgADBFcaaxn1D1eniIp6PsC9nf8V9jqsCKEXyKWCMGTxGeaFDWIGMqCYwC2xes1REAAfwv4Gh0Nb8MwAoslS9Pa1A2zFz+meNNH5f/pOUTlcVSHpJVjdAjo9USg0tRRebmUMttU+HkgutIBteRx15pmoNEYUvMW2b+rF+lVNHGrCZy2psxgZyOF10v/OrTGSV04f+tT9oW+/DLtcIGHAPFmX7CUMdSvcActQkTGBlS/dv+eTR8QBpMkqgjIY9M9cuO31W1C5x2E5tk8qnv+gwF94AG848fq2AHtcbAYNc4dx1omCijUASdhrVCRoOBl2Zk6nPXpMAIbFUHVjZ5ZLudb+83y8GYXMZxeMMROFBk6HZU35JnwzxmqePz9bgMnHN/cruYN2BsISnEAfRqGG0mD9aEb0hvwOaQIaWHzd63aYcY/wQU5SMeAvWaa0K8REvGZ0dyZWlBjqhC+Kz0IA9JFKjfPHD+GrbaAFp2khEKB8jOw5ISmP6bsoK59punAPztV4TVlbnewx+VNE0+NMyDXeRou9TVe2Wdv3R7w/+U4xu1+lyNsKEV6eaRT/50PWTklueIPIAf+5g4rMekivPCSiuho2Lga7GFXejZFDhpOGdaZwTUoM97qEgLutur6qUbyZzYBGzs2wKnewqBazk/xaITVP5m+OsSc3z7R4ukoeJA8KsZ/KjJ4qs0MEefLCM990l5P5c59PfDDtfX5tYp+hc/JwAxWzHP93nePZmAI1I9gvDufTCe6u0jjXfIJ/ePP8hGGr1aKPCXtAzhAFXt6DOU/w1zuSlBjgzY2N2hh+HYKJDfoWpazg1wueWicpWdPiIpwMOYtCrUPjKoZGDh4E3d4umwDAHV4zb8mH7/bZm5PVWULYrSPH56nAN6e1HH6tt6WRR5796Mgd+0rPinAIBUnklvc3LP8SYVFG7OCQ+Ky/+Mf36ury6nGNmntptsafnnuarWx99y3Vl3VMMfkCPzG2u8PWdAlrllI0HlCtojNqwru+wtp4CnXA17CaSdP2f9jyyVpYDF/4Nfxa7/IxF+GWj7dsMSVNwUhHqCJC7nW4XXqbYBmzNBxDgpSFhWF3AthojcR2gQgjXKutQthXPtSgAtiRPBdmlqFukPgACdtd1gAAAABFWElGugAAAEV4aWYAAElJKgAIAAAABgASAQMAAQAAAAEAAAAaAQUAAQAAAFYAAAAbAQUAAQAAAF4AAAAoAQMAAQAAAAIAAAATAgMAAQAAAAEAAABphwQAAQAAAGYAAAAAAAAASAAAAAEAAABIAAAAAQAAAAYAAJAHAAQAAAAwMjEwAZEHAAQAAAABAgMAAKAHAAQAAAAwMTAwAaADAAEAAAD//wAAAqAEAAEAAAAAAgAAA6AEAAEAAAA8AQAAAAAAAA==;clipPath=inset(10.54% 5.67% 18.11% 4.67%);" vertex="1" parent="1">
          <mxGeometry x="429" y="320" width="224.17" height="110" as="geometry" />
        </mxCell>
        <mxCell id="qwQ6lFZk11DUhRD3ejrK-2" value="" style="image;html=1;image=img/lib/clip_art/networking/Cloud_Rack_128x128.png" vertex="1" parent="1">
          <mxGeometry x="109" y="40" width="140" height="140" as="geometry" />
        </mxCell>
        <mxCell id="qwQ6lFZk11DUhRD3ejrK-5" value="" style="html=1;verticalLabelPosition=bottom;align=center;labelBackgroundColor=#ffffff;verticalAlign=top;strokeWidth=2;strokeColor=#0080F0;shadow=0;dashed=0;shape=mxgraph.ios7.icons.smartphone;" vertex="1" parent="1">
          <mxGeometry x="299" y="560" width="50" height="110" as="geometry" />
        </mxCell>
        <mxCell id="qwQ6lFZk11DUhRD3ejrK-6" value="" style="endArrow=classic;html=1;rounded=0;entryX=0;entryY=1;entryDx=0;entryDy=0;exitX=0.5;exitY=0;exitDx=0;exitDy=0;exitPerimeter=0;" edge="1" parent="1" source="qwQ6lFZk11DUhRD3ejrK-5" target="qwQ6lFZk11DUhRD3ejrK-1">
          <mxGeometry relative="1" as="geometry">
            <mxPoint x="169" y="440" as="sourcePoint" />
            <mxPoint x="269" y="440" as="targetPoint" />
          </mxGeometry>
        </mxCell>
        <mxCell id="qwQ6lFZk11DUhRD3ejrK-7" value="" style="shape=message;html=1;outlineConnect=0;" vertex="1" parent="qwQ6lFZk11DUhRD3ejrK-6">
          <mxGeometry width="20" height="14" relative="1" as="geometry">
            <mxPoint x="-10" y="-7" as="offset" />
          </mxGeometry>
        </mxCell>
        <mxCell id="qwQ6lFZk11DUhRD3ejrK-8" value="" style="endArrow=classic;html=1;rounded=0;exitX=1;exitY=0.5;exitDx=0;exitDy=0;entryX=0;entryY=0;entryDx=0;entryDy=0;" edge="1" parent="1" source="qwQ6lFZk11DUhRD3ejrK-2" target="qwQ6lFZk11DUhRD3ejrK-1">
          <mxGeometry relative="1" as="geometry">
            <mxPoint x="239" y="240" as="sourcePoint" />
            <mxPoint x="339" y="240" as="targetPoint" />
          </mxGeometry>
        </mxCell>
        <mxCell id="qwQ6lFZk11DUhRD3ejrK-9" value="" style="shape=message;html=1;outlineConnect=0;" vertex="1" parent="qwQ6lFZk11DUhRD3ejrK-8">
          <mxGeometry width="20" height="14" relative="1" as="geometry">
            <mxPoint x="-10" y="-7" as="offset" />
          </mxGeometry>
        </mxCell>
        <mxCell id="qwQ6lFZk11DUhRD3ejrK-10" value="" style="outlineConnect=0;dashed=0;verticalLabelPosition=bottom;verticalAlign=top;align=center;html=1;shape=mxgraph.aws3.internet_3;fillColor=#D2D3D3;gradientColor=none;" vertex="1" parent="1">
          <mxGeometry x="29" y="290" width="160" height="110" as="geometry" />
        </mxCell>
        <mxCell id="qwQ6lFZk11DUhRD3ejrK-13" value="" style="image;aspect=fixed;html=1;points=[];align=center;fontSize=12;image=img/lib/azure2/general/Power.svg;" vertex="1" parent="1">
          <mxGeometry x="649" y="112" width="44" height="68" as="geometry" />
        </mxCell>
        <mxCell id="qwQ6lFZk11DUhRD3ejrK-14" value="" style="endArrow=classic;html=1;rounded=0;exitX=0.386;exitY=1.029;exitDx=0;exitDy=0;exitPerimeter=0;entryX=0.442;entryY=-0.009;entryDx=0;entryDy=0;entryPerimeter=0;" edge="1" parent="1" source="qwQ6lFZk11DUhRD3ejrK-13" target="qwQ6lFZk11DUhRD3ejrK-1">
          <mxGeometry relative="1" as="geometry">
            <mxPoint x="469" y="130" as="sourcePoint" />
            <mxPoint x="569" y="130" as="targetPoint" />
            <Array as="points">
              <mxPoint x="528" y="320" />
            </Array>
          </mxGeometry>
        </mxCell>
        <mxCell id="qwQ6lFZk11DUhRD3ejrK-16" value="&lt;div&gt;12V power&lt;/div&gt;" style="edgeLabel;html=1;align=center;verticalAlign=middle;resizable=0;points=[];" vertex="1" connectable="0" parent="qwQ6lFZk11DUhRD3ejrK-14">
          <mxGeometry x="0.0115" y="-5" relative="1" as="geometry">
            <mxPoint as="offset" />
          </mxGeometry>
        </mxCell>
        <mxCell id="qwQ6lFZk11DUhRD3ejrK-23" value="" style="verticalLabelPosition=bottom;dashed=0;shadow=0;html=1;align=center;verticalAlign=top;shape=mxgraph.cabinets.plugin_relay_2;" vertex="1" parent="1">
          <mxGeometry x="779" y="360" width="32" height="70" as="geometry" />
        </mxCell>
        <mxCell id="qwQ6lFZk11DUhRD3ejrK-25" value="" style="endArrow=classic;html=1;rounded=0;exitX=0.996;exitY=0.471;exitDx=0;exitDy=0;exitPerimeter=0;entryX=0.557;entryY=0.071;entryDx=0;entryDy=0;entryPerimeter=0;" edge="1" parent="1" source="qwQ6lFZk11DUhRD3ejrK-13" target="qwQ6lFZk11DUhRD3ejrK-23">
          <mxGeometry relative="1" as="geometry">
            <mxPoint x="759.002" y="60.32800000000009" as="sourcePoint" />
            <mxPoint x="801.6700000000001" y="319" as="targetPoint" />
            <Array as="points">
              <mxPoint x="789" y="340" />
            </Array>
          </mxGeometry>
        </mxCell>
        <mxCell id="qwQ6lFZk11DUhRD3ejrK-26" value="&lt;div&gt;12V power&lt;/div&gt;" style="edgeLabel;html=1;align=center;verticalAlign=middle;resizable=0;points=[];" vertex="1" connectable="0" parent="qwQ6lFZk11DUhRD3ejrK-25">
          <mxGeometry x="0.0115" y="-5" relative="1" as="geometry">
            <mxPoint as="offset" />
          </mxGeometry>
        </mxCell>
        <mxCell id="qwQ6lFZk11DUhRD3ejrK-28" style="edgeStyle=orthogonalEdgeStyle;rounded=0;orthogonalLoop=1;jettySize=auto;html=1;exitX=1;exitY=0.5;exitDx=0;exitDy=0;entryX=-0.036;entryY=0.362;entryDx=0;entryDy=0;entryPerimeter=0;" edge="1" parent="1" source="qwQ6lFZk11DUhRD3ejrK-1" target="qwQ6lFZk11DUhRD3ejrK-23">
          <mxGeometry relative="1" as="geometry" />
        </mxCell>
        <mxCell id="qwQ6lFZk11DUhRD3ejrK-29" value="" style="html=1;verticalLabelPosition=bottom;align=center;labelBackgroundColor=#ffffff;verticalAlign=top;strokeWidth=2;strokeColor=#0080F0;shadow=0;dashed=0;shape=mxgraph.ios7.icons.lightbulb;rotation=-180;" vertex="1" parent="1">
          <mxGeometry x="768.6" y="490" width="52.8" height="79.7" as="geometry" />
        </mxCell>
        <mxCell id="qwQ6lFZk11DUhRD3ejrK-30" value="" style="endArrow=none;html=1;rounded=0;entryX=0.354;entryY=1.005;entryDx=0;entryDy=0;entryPerimeter=0;exitX=0.509;exitY=0.923;exitDx=0;exitDy=0;exitPerimeter=0;" edge="1" parent="1" source="qwQ6lFZk11DUhRD3ejrK-29" target="qwQ6lFZk11DUhRD3ejrK-23">
          <mxGeometry width="50" height="50" relative="1" as="geometry">
            <mxPoint x="619" y="530" as="sourcePoint" />
            <mxPoint x="669" y="480" as="targetPoint" />
          </mxGeometry>
        </mxCell>
        <mxCell id="qwQ6lFZk11DUhRD3ejrK-31" value="" style="shape=mxgraph.arrows2.wedgeArrowDashed2;html=1;bendable=0;startWidth=50;stepSize=15;rounded=0;exitX=0;exitY=0.5;exitDx=0;exitDy=0;entryX=1;entryY=0.7;entryDx=0;entryDy=0;entryPerimeter=0;" edge="1" parent="1" source="qwQ6lFZk11DUhRD3ejrK-1" target="qwQ6lFZk11DUhRD3ejrK-10">
          <mxGeometry width="100" height="100" relative="1" as="geometry">
            <mxPoint x="209" y="630" as="sourcePoint" />
            <mxPoint x="189" y="410" as="targetPoint" />
          </mxGeometry>
        </mxCell>
        <mxCell id="qwQ6lFZk11DUhRD3ejrK-32" value="Config Page" style="swimlane;childLayout=stackLayout;horizontal=1;startSize=50;horizontalStack=0;rounded=1;fontSize=14;fontStyle=0;strokeWidth=2;resizeParent=0;resizeLast=1;shadow=0;dashed=0;align=center;arcSize=4;whiteSpace=wrap;html=1;" vertex="1" parent="1">
          <mxGeometry x="569" y="520" width="100" height="120" as="geometry" />
        </mxCell>
        <mxCell id="qwQ6lFZk11DUhRD3ejrK-33" value="&lt;div&gt;SSID &lt;br&gt;&lt;/div&gt;&lt;div&gt;Password&lt;/div&gt;&lt;div&gt;Username(const)&lt;/div&gt;&lt;div&gt;Password(const)&lt;/div&gt;&lt;div&gt;&lt;br&gt;&lt;/div&gt;" style="align=left;strokeColor=none;fillColor=none;spacingLeft=4;fontSize=12;verticalAlign=top;resizable=0;rotatable=0;part=1;html=1;" vertex="1" parent="qwQ6lFZk11DUhRD3ejrK-32">
          <mxGeometry y="50" width="100" height="70" as="geometry" />
        </mxCell>
        <mxCell id="qwQ6lFZk11DUhRD3ejrK-35" value="" style="shape=mxgraph.arrows2.wedgeArrowDashed2;html=1;bendable=0;startWidth=50;stepSize=15;rounded=0;entryX=0.75;entryY=1;entryDx=0;entryDy=0;exitX=0.5;exitY=0;exitDx=0;exitDy=0;" edge="1" parent="1" source="qwQ6lFZk11DUhRD3ejrK-32" target="qwQ6lFZk11DUhRD3ejrK-1">
          <mxGeometry width="100" height="100" relative="1" as="geometry">
            <mxPoint x="479" y="560" as="sourcePoint" />
            <mxPoint x="579" y="460" as="targetPoint" />
          </mxGeometry>
        </mxCell>
      </root>
    </mxGraphModel>
  </diagram>
</mxfile>
